<svg width="77" height="23" viewBox="0 0 77 23" fill="none" xmlns="http://www.w3.org/2000/svg">
<path d="M3.93623 8.85601C3.93623 5.30401 6.48023 3.69601 8.85623 3.69601C11.2082 3.69601 13.7522 5.30401 13.7522 8.85601C13.7522 12.408 11.2082 13.992 8.85623 13.992C6.48023 13.992 3.93623 12.408 3.93623 8.85601ZM0.000230521 8.88001C0.000230521 14.256 4.05623 17.736 8.85623 17.736C13.6322 17.736 17.6882 14.256 17.6882 8.88001C17.6882 3.48001 13.6322 6.19888e-06 8.85623 6.19888e-06C4.05623 6.19888e-06 0.000230521 3.48001 0.000230521 8.88001ZM23.0482 17.376V10.512C23.0482 9.43201 23.7442 8.44801 25.0162 8.44801C26.3362 8.44801 26.9362 9.33601 26.9362 10.464V17.376H30.5362V10.488C30.5362 9.43201 31.2322 8.44801 32.5282 8.44801C33.8242 8.44801 34.4242 9.33601 34.4242 10.464V17.376H37.9522V9.64801C37.9522 6.40801 35.7922 5.08801 33.5362 5.08801C31.9282 5.08801 30.7762 5.61601 29.8402 6.96001C29.2402 5.78401 28.0162 5.08801 26.3122 5.08801C25.0162 5.08801 23.4802 5.76001 22.8802 6.81601V5.44801H19.4002V17.376H23.0482ZM43.0427 9.98401C43.1147 9.09601 43.8827 7.96801 45.4187 7.96801C47.1467 7.96801 47.7707 9.07201 47.8187 9.98401H43.0427ZM48.0827 13.08C47.7467 14.016 47.0027 14.64 45.6827 14.64C44.2667 14.64 43.0427 13.68 42.9707 12.336H51.2747C51.2987 12.264 51.3467 11.712 51.3467 11.208C51.3467 7.36801 49.0667 5.08801 45.3707 5.08801C42.2747 5.08801 39.4187 7.53601 39.4187 11.376C39.4187 15.384 42.3467 17.736 45.6347 17.736C48.6587 17.736 50.5547 16.008 51.1307 13.944L48.0827 13.08ZM52.0986 18.048C52.4346 20.184 54.6186 22.296 58.0506 22.296C62.5146 22.296 64.4346 19.32 64.4346 15.888V5.44801H60.9546V6.72001C60.6186 6.09601 59.5866 5.23201 57.6426 5.23201C54.3786 5.23201 52.0986 7.92001 52.0986 11.064C52.0986 14.376 54.4746 16.872 57.6426 16.872C59.3706 16.872 60.4026 16.176 60.8346 15.528V16.08C60.8346 18.24 59.7066 19.128 57.8826 19.128C56.5146 19.128 55.5546 18.288 55.3146 17.136L52.0986 18.048ZM58.3146 13.704C56.8506 13.704 55.7466 12.696 55.7466 11.064C55.7466 9.43201 56.9466 8.42401 58.3146 8.42401C59.6826 8.42401 60.8586 9.43201 60.8586 11.064C60.8586 12.696 59.8026 13.704 58.3146 13.704ZM65.9292 14.088C65.9292 15.984 67.4412 17.712 70.0572 17.712C71.6412 17.712 72.7932 17.04 73.4172 16.032C73.4172 16.848 73.5132 17.28 73.5372 17.376H76.8252C76.8012 17.256 76.6812 16.464 76.6812 15.528V9.69601C76.6812 7.24801 75.2652 5.08801 71.4012 5.08801C67.8972 5.08801 66.3132 7.34401 66.1692 9.04801L69.3372 9.69601C69.4092 8.80801 70.1052 7.94401 71.3772 7.94401C72.5292 7.94401 73.1292 8.54401 73.1292 9.24001C73.1292 9.64801 72.9132 9.96001 72.2652 10.056L69.4572 10.488C67.4892 10.776 65.9292 11.976 65.9292 14.088ZM70.9452 15.072C69.9372 15.072 69.5292 14.472 69.5292 13.848C69.5292 13.008 70.1052 12.648 70.8732 12.528L73.1292 12.168V12.696C73.1292 14.544 72.0252 15.072 70.9452 15.072Z" fill="white"/>
</svg>
