<svg width="77" height="23" viewBox="0 0 77 23" fill="none" xmlns="http://www.w3.org/2000/svg">
<path d="M3.936 8.85601C3.936 5.30401 6.48 3.69601 8.856 3.69601C11.208 3.69601 13.752 5.30401 13.752 8.85601C13.752 12.408 11.208 13.992 8.856 13.992C6.48 13.992 3.936 12.408 3.936 8.85601ZM-2.68221e-07 8.88001C-2.68221e-07 14.256 4.056 17.736 8.856 17.736C13.632 17.736 17.688 14.256 17.688 8.88001C17.688 3.48001 13.632 6.19888e-06 8.856 6.19888e-06C4.056 6.19888e-06 -2.68221e-07 3.48001 -2.68221e-07 8.88001ZM23.0479 17.376V10.512C23.0479 9.43201 23.7439 8.44801 25.0159 8.44801C26.3359 8.44801 26.9359 9.33601 26.9359 10.464V17.376H30.5359V10.488C30.5359 9.43201 31.2319 8.44801 32.5279 8.44801C33.8239 8.44801 34.4239 9.33601 34.4239 10.464V17.376H37.9519V9.64801C37.9519 6.40801 35.7919 5.08801 33.5359 5.08801C31.9279 5.08801 30.7759 5.61601 29.8399 6.96001C29.2399 5.78401 28.0159 5.08801 26.3119 5.08801C25.0159 5.08801 23.4799 5.76001 22.8799 6.81601V5.44801H19.3999V17.376H23.0479ZM43.0424 9.98401C43.1144 9.09601 43.8824 7.96801 45.4184 7.96801C47.1464 7.96801 47.7704 9.07201 47.8184 9.98401H43.0424ZM48.0824 13.08C47.7464 14.016 47.0024 14.64 45.6824 14.64C44.2664 14.64 43.0424 13.68 42.9704 12.336H51.2744C51.2984 12.264 51.3464 11.712 51.3464 11.208C51.3464 7.36801 49.0664 5.08801 45.3704 5.08801C42.2744 5.08801 39.4184 7.53601 39.4184 11.376C39.4184 15.384 42.3464 17.736 45.6344 17.736C48.6584 17.736 50.5544 16.008 51.1304 13.944L48.0824 13.08ZM52.0984 18.048C52.4344 20.184 54.6184 22.296 58.0504 22.296C62.5144 22.296 64.4344 19.32 64.4344 15.888V5.44801H60.9544V6.72001C60.6184 6.09601 59.5864 5.23201 57.6424 5.23201C54.3784 5.23201 52.0984 7.92001 52.0984 11.064C52.0984 14.376 54.4744 16.872 57.6424 16.872C59.3704 16.872 60.4024 16.176 60.8344 15.528V16.08C60.8344 18.24 59.7064 19.128 57.8824 19.128C56.5144 19.128 55.5544 18.288 55.3144 17.136L52.0984 18.048ZM58.3144 13.704C56.8504 13.704 55.7464 12.696 55.7464 11.064C55.7464 9.43201 56.9464 8.42401 58.3144 8.42401C59.6824 8.42401 60.8584 9.43201 60.8584 11.064C60.8584 12.696 59.8024 13.704 58.3144 13.704ZM65.929 14.088C65.929 15.984 67.441 17.712 70.057 17.712C71.641 17.712 72.793 17.04 73.417 16.032C73.417 16.848 73.513 17.28 73.537 17.376H76.825C76.801 17.256 76.681 16.464 76.681 15.528V9.69601C76.681 7.24801 75.265 5.08801 71.401 5.08801C67.897 5.08801 66.313 7.34401 66.169 9.04801L69.337 9.69601C69.409 8.80801 70.105 7.94401 71.377 7.94401C72.529 7.94401 73.129 8.54401 73.129 9.24001C73.129 9.64801 72.913 9.96001 72.265 10.056L69.457 10.488C67.489 10.776 65.929 11.976 65.929 14.088ZM70.945 15.072C69.937 15.072 69.529 14.472 69.529 13.848C69.529 13.008 70.105 12.648 70.873 12.528L73.129 12.168V12.696C73.129 14.544 72.025 15.072 70.945 15.072Z" fill="#19191B"/>
</svg>
